<svg width="24" height="25" viewBox="0 0 24 25" fill="none" xmlns="http://www.w3.org/2000/svg">
<path d="M17.5 20.5C18.8807 20.5 20 19.3807 20 18C20 16.6193 18.8807 15.5 17.5 15.5C16.1193 15.5 15 16.6193 15 18C15 19.3807 16.1193 20.5 17.5 20.5Z" stroke="#FE6A0E" stroke-width="2"/>
<path d="M21 21.5L19.5 20" stroke="#FE6A0E" stroke-width="2" stroke-linecap="round"/>
<path fill-rule="evenodd" clip-rule="evenodd" d="M4 10.5C4 6.729 4 4.843 5.172 3.672C6.344 2.501 8.229 2.5 12 2.5C15.771 2.5 17.657 2.5 18.828 3.672C19.999 4.844 20 6.729 20 10.5V13.669C19.4223 13.3433 18.7855 13.1358 18.1268 13.0585C17.4681 12.9813 16.8006 13.0359 16.1632 13.2191C15.5258 13.4023 14.9312 13.7105 14.4141 14.1257C13.8969 14.541 13.4675 15.0549 13.1509 15.6377C12.8343 16.2205 12.6369 16.8604 12.57 17.5203C12.5031 18.1801 12.5681 18.8467 12.7614 19.4811C12.9546 20.1156 13.2721 20.7052 13.6954 21.2158C14.1187 21.7264 14.6393 22.1476 15.227 22.455C14.337 22.5 13.277 22.5 12 22.5C8.229 22.5 6.343 22.5 5.172 21.328C4.001 20.156 4 18.271 4 14.5V10.5ZM8 5.5C7.73478 5.5 7.48043 5.60536 7.29289 5.79289C7.10536 5.98043 7 6.23478 7 6.5C7 6.76522 7.10536 7.01957 7.29289 7.20711C7.48043 7.39464 7.73478 7.5 8 7.5H12C12.2652 7.5 12.5196 7.39464 12.7071 7.20711C12.8946 7.01957 13 6.76522 13 6.5C13 6.23478 12.8946 5.98043 12.7071 5.79289C12.5196 5.60536 12.2652 5.5 12 5.5H8ZM8 9.5C7.73478 9.5 7.48043 9.60536 7.29289 9.79289C7.10536 9.98043 7 10.2348 7 10.5C7 10.7652 7.10536 11.0196 7.29289 11.2071C7.48043 11.3946 7.73478 11.5 8 11.5H14C14.2652 11.5 14.5196 11.3946 14.7071 11.2071C14.8946 11.0196 15 10.7652 15 10.5C15 10.2348 14.8946 9.98043 14.7071 9.79289C14.5196 9.60536 14.2652 9.5 14 9.5H8ZM8 13.5C7.73478 13.5 7.48043 13.6054 7.29289 13.7929C7.10536 13.9804 7 14.2348 7 14.5C7 14.7652 7.10536 15.0196 7.29289 15.2071C7.48043 15.3946 7.73478 15.5 8 15.5H11C11.2652 15.5 11.5196 15.3946 11.7071 15.2071C11.8946 15.0196 12 14.7652 12 14.5C12 14.2348 11.8946 13.9804 11.7071 13.7929C11.5196 13.6054 11.2652 13.5 11 13.5H8Z" fill="#FE6A0E"/>
</svg>
