<svg width="25" height="25" viewBox="0 0 25 25" fill="none" xmlns="http://www.w3.org/2000/svg">
<path d="M6.83189 8.49988C6.83189 6.90858 7.46403 5.38246 8.58925 4.25724C9.71447 3.13202 11.2406 2.49988 12.8319 2.49988C14.4232 2.49988 15.9493 3.13202 17.0745 4.25724C18.1998 5.38246 18.8319 6.90858 18.8319 8.49988C18.8319 15.4999 21.8319 17.4999 21.8319 17.4999H3.83189C3.83189 17.4999 6.83189 15.4999 6.83189 8.49988Z" fill="#FE6A0E" stroke="#FE6A0E" stroke-width="1.90165" stroke-linecap="round" stroke-linejoin="round"/>
<path d="M11.1319 21.5C11.2993 21.8044 11.5453 22.0583 11.8444 22.2352C12.1434 22.412 12.4845 22.5053 12.8319 22.5053C13.1793 22.5053 13.5204 22.412 13.8194 22.2352C14.1184 22.0583 14.3645 21.8044 14.5319 21.5" fill="#FE6A0E"/>
<path d="M11.1319 21.5C11.2993 21.8044 11.5453 22.0583 11.8444 22.2352C12.1434 22.412 12.4845 22.5053 12.8319 22.5053C13.1793 22.5053 13.5204 22.412 13.8194 22.2352C14.1184 22.0583 14.3645 21.8044 14.5319 21.5" stroke="#FE6A0E" stroke-width="1.90165" stroke-linecap="round" stroke-linejoin="round"/>
</svg>
