<svg width="28" height="28" viewBox="0 0 28 28" fill="none" xmlns="http://www.w3.org/2000/svg">
<path d="M12.8415 24.5003H11.2059C7.02337 24.5003 4.93271 24.5003 3.63304 23.1762C2.33337 21.852 2.33337 19.7205 2.33337 15.4587C2.33337 11.1968 2.33337 9.06533 3.63304 7.74116C4.93271 6.41699 7.02337 6.41699 11.2059 6.41699H15.6427C19.8252 6.41699 21.917 6.41699 23.2167 7.74116C24.2165 8.75966 24.4464 10.2565 24.5 12.8337" stroke="#222222" stroke-width="2.3" stroke-linecap="round" stroke-linejoin="round"/>
<path d="M23.3532 23.3603L25.6667 25.6668M18.6667 6.41683L18.5501 6.05516C17.9726 4.2585 17.6844 3.36016 16.9972 2.84683C16.3089 2.3335 15.3966 2.3335 13.5684 2.3335H13.2616C11.4357 2.3335 10.5222 2.3335 9.83508 2.84683C9.14675 3.36016 8.85858 4.2585 8.28108 6.05516L8.16675 6.41683M24.5619 20.4472C24.5711 19.901 24.4715 19.3586 24.2689 18.8513C24.0662 18.3441 23.7646 17.8823 23.3817 17.4929C22.9987 17.1034 22.5421 16.7941 22.0383 16.5829C21.5346 16.3718 20.9939 16.263 20.4477 16.263C19.9015 16.263 19.3607 16.3718 18.857 16.5829C18.3533 16.7941 17.8966 17.1034 17.5136 17.4929C17.1307 17.8823 16.8291 18.3441 16.6265 18.8513C16.4238 19.3586 16.3242 19.901 16.3334 20.4472C16.3516 21.5263 16.793 22.5552 17.5626 23.3119C18.3322 24.0686 19.3683 24.4927 20.4477 24.4927C21.527 24.4927 22.5631 24.0686 23.3327 23.3119C24.1023 22.5552 24.5437 21.5263 24.5619 20.4472Z" stroke="#222222" stroke-width="2.3" stroke-linecap="round" stroke-linejoin="round"/>
</svg>
