<svg width="28" height="29" viewBox="0 0 28 29" fill="none" xmlns="http://www.w3.org/2000/svg">
<path d="M18.6667 7.65666C18.6667 5.45632 18.6667 4.35732 17.983 3.67366C17.2994 2.98999 16.2004 2.98999 14 2.98999C11.7997 2.98999 10.7007 2.98999 10.017 3.67366C9.33337 4.35732 9.33337 5.45632 9.33337 7.65666M2.33337 16.99C2.33337 12.5905 2.33337 10.3902 3.70071 9.02399C5.06804 7.65782 7.26721 7.65666 11.6667 7.65666H16.3334C20.7329 7.65666 22.9332 7.65666 24.2994 9.02399C25.6655 10.3913 25.6667 12.5905 25.6667 16.99C25.6667 21.3895 25.6667 23.5898 24.2994 24.956C22.932 26.3222 20.7329 26.3233 16.3334 26.3233H11.6667C7.26721 26.3233 5.06687 26.3233 3.70071 24.956C2.33454 23.5887 2.33337 21.3895 2.33337 16.99Z" stroke="#222222" stroke-width="2.3"/>
<path d="M19.7711 12.0558C19.7711 12.4415 19.6179 12.8114 19.3452 13.0841C19.0725 13.3568 18.7026 13.51 18.3169 13.51C17.9312 13.51 17.5613 13.3568 17.2886 13.0841C17.0159 12.8114 16.8627 12.4415 16.8627 12.0558C16.8627 11.6701 17.0159 11.3002 17.2886 11.0275C17.5613 10.7548 17.9312 10.6016 18.3169 10.6016C18.7026 10.6016 19.0725 10.7548 19.3452 11.0275C19.6179 11.3002 19.7711 11.6701 19.7711 12.0558ZM11.1373 12.0558C11.1373 12.4415 10.9841 12.8114 10.7114 13.0841C10.4387 13.3568 10.0688 13.51 9.68311 13.51C9.29742 13.51 8.92753 13.3568 8.65481 13.0841C8.38209 12.8114 8.22888 12.4415 8.22888 12.0558C8.22888 11.6701 8.38209 11.3002 8.65481 11.0275C8.92753 10.7548 9.29742 10.6016 9.68311 10.6016C10.0688 10.6016 10.4387 10.7548 10.7114 11.0275C10.9841 11.3002 11.1373 11.6701 11.1373 12.0558Z" fill="#222222"/>
</svg>
