<svg width="24" height="25" viewBox="0 0 24 25" fill="none" xmlns="http://www.w3.org/2000/svg">
<g clip-path="url(#clip0_708_321)">
<path d="M2 15.5527C2 12.2779 2 11.5085 3.0548 10.4915C4.1096 9.47462 5.8061 9.47375 9.2 9.47375H12.8C16.1939 9.47375 17.8913 9.47375 18.9452 10.4915C19.9991 11.5093 20 12.2779 20 15.5527C20 18.8275 20 20.4654 18.9452 21.4823C17.8904 22.4992 16.1939 22.5001 12.8 22.5001H9.2C5.8061 22.5001 4.1087 22.5001 3.0548 21.4823C2.0009 20.4645 2 18.8275 2 15.5527Z" fill="#FE6A0E" stroke="#FE6A0E" stroke-width="1.38158"/>
<path d="M3.05481 10.4915C4.10961 9.47455 5.80611 9.47368 9.20001 9.47368H12.8C16.1939 9.47368 17.8913 9.47368 18.9452 10.4915M14.6 9.47368C14.6 7.83584 14.6 7.01779 14.0726 6.50889C13.5452 6 12.6974 6 11 6C9.30261 6 8.45481 6 7.92741 6.50889C7.40001 7.01779 7.40001 7.83584 7.40001 9.47368" stroke="#FE6A0E" stroke-width="1.38158"/>
<g clip-path="url(#clip1_708_321)">
<path d="M19.337 3.71646C19.2341 3.4241 18.8461 3.35971 18.654 3.6031C18.4013 3.92365 18.1798 4.26757 17.9925 4.63019C17.9841 4.64421 17.9717 4.65536 17.9569 4.66216C17.9421 4.66895 17.9256 4.67107 17.9095 4.66822C17.5764 4.62179 17.2404 4.59987 16.9041 4.60263C16.5931 4.60514 16.3997 4.94566 16.5922 5.20827C16.6164 5.24141 16.6409 5.27445 16.6658 5.30738C16.8523 5.55364 17.0542 5.78787 17.2703 6.00867C17.2802 6.01794 17.2869 6.03018 17.2893 6.04357C17.2917 6.05695 17.2896 6.07074 17.2835 6.08288C17.0975 6.43477 16.9452 6.80344 16.8285 7.18397C16.7321 7.49877 17.0402 7.75294 17.329 7.66055C17.6795 7.54861 18.0202 7.40805 18.3477 7.24028C18.3648 7.23202 18.384 7.22924 18.4027 7.23235C18.4214 7.23545 18.4387 7.24428 18.4521 7.25762C18.7077 7.52241 18.9847 7.76552 19.2805 7.98445C19.5239 8.16516 19.8976 8.02416 19.9081 7.6951C19.9206 7.29729 19.8956 6.8992 19.8334 6.50609C19.8315 6.49263 19.8341 6.47892 19.8406 6.46703C19.8472 6.45514 19.8575 6.4457 19.8699 6.44014C20.1824 6.28244 20.4832 6.10257 20.77 5.90191C21.0369 5.71532 20.964 5.33059 20.6705 5.22775C20.353 5.11648 20.0278 5.02865 19.6975 4.96498C19.6815 4.96245 19.6665 4.95509 19.6547 4.94388C19.643 4.93268 19.6348 4.91815 19.6315 4.90223C19.5718 4.49844 19.473 4.10132 19.337 3.71646Z" fill="#FE6A0E"/>
</g>
<g clip-path="url(#clip2_708_321)">
<path d="M21.3253 1.44224C21.1667 1.34537 20.962 1.46238 20.965 1.64823C20.9689 1.89287 20.9963 2.13658 21.0465 2.37603C21.048 2.3857 21.0464 2.39558 21.0421 2.40435C21.0378 2.41312 21.0309 2.42037 21.0224 2.42513C20.85 2.5297 20.6856 2.64678 20.5303 2.77543C20.3868 2.89438 20.4259 3.12584 20.6148 3.17499C20.6386 3.18121 20.6625 3.18726 20.6865 3.19314C20.8665 3.23693 21.049 3.26932 21.233 3.29009C21.2411 3.29064 21.2489 3.2938 21.255 3.29912C21.2612 3.30443 21.2655 3.31161 21.2673 3.31956C21.3141 3.55352 21.3829 3.78252 21.4728 4.00354C21.5473 4.18632 21.7867 4.18773 21.8859 4.03545C22.0064 3.85069 22.1115 3.65633 22.2001 3.45435C22.2049 3.44405 22.2128 3.43548 22.2226 3.42984C22.2325 3.4242 22.2439 3.42176 22.2552 3.42285C22.4742 3.44913 22.695 3.45717 22.9154 3.44689C23.0969 3.43867 23.2172 3.23161 23.0974 3.07474C22.9526 2.88513 22.7902 2.70961 22.6124 2.55052C22.6064 2.54498 22.6024 2.53764 22.601 2.52962C22.5995 2.5216 22.6007 2.51333 22.6044 2.50605C22.6899 2.31443 22.7615 2.11693 22.8188 1.91508C22.8722 1.72725 22.6926 1.57612 22.5172 1.63949C22.3276 1.70801 22.1432 1.79036 21.9656 1.88586C21.9572 1.89077 21.9475 1.893 21.9378 1.89226C21.928 1.89152 21.9188 1.88783 21.9112 1.8817C21.7305 1.7167 21.5342 1.56958 21.3253 1.44224Z" fill="#FE6A0E"/>
</g>
</g>
<defs>
<clipPath id="clip0_708_321">
<rect width="24" height="24" fill="white" transform="translate(0 0.5)"/>
</clipPath>
<clipPath id="clip1_708_321">
<rect width="5.5" height="5.5" fill="white" transform="translate(16.4005 2.5) rotate(9.42369)"/>
</clipPath>
<clipPath id="clip2_708_321">
<rect width="3.29704" height="3.29704" fill="white" transform="translate(19.5 1.98901) rotate(-29.7572)"/>
</clipPath>
</defs>
</svg>
