<svg width="20" height="20" viewBox="0 0 20 20" fill="none" xmlns="http://www.w3.org/2000/svg">
<path d="M9.99998 17.9168C12.0996 17.9168 14.1132 17.0828 15.5979 15.5981C17.0826 14.1134 17.9166 12.0998 17.9166 10.0002C17.9166 7.90053 17.0826 5.8869 15.5979 4.40223C14.1132 2.91757 12.0996 2.0835 9.99998 2.0835C7.90035 2.0835 5.88671 2.91757 4.40205 4.40223C2.91739 5.8869 2.08331 7.90053 2.08331 10.0002C2.08331 12.0998 2.91739 14.1134 4.40205 15.5981C5.88671 17.0828 7.90035 17.9168 9.99998 17.9168Z" stroke="#FE6A0E" stroke-width="1.5" stroke-linecap="round" stroke-linejoin="round"/>
<path d="M7.5 12.0277C7.55317 12.6409 7.84485 13.2089 8.31235 13.6094C8.77985 14.0099 9.38582 14.2109 10 14.1693C12.0167 14.1693 12.5 13.011 12.5 12.0277C12.5 11.0443 11.6667 10.0027 10 10.0027C8.33333 10.0027 7.5 9.34433 7.5 8.00266C7.51554 7.69401 7.59335 7.39169 7.72875 7.11388C7.86415 6.83607 8.05434 6.58852 8.28788 6.38612C8.52143 6.18372 8.7935 6.03064 9.08773 5.9361C9.38196 5.84156 9.69227 5.80751 10 5.836C10.6146 5.80953 11.216 6.01926 11.6809 6.42215C12.1458 6.82504 12.4388 7.39055 12.5 8.00266M10 15.4168V14.3335M10 4.5835V5.83266" stroke="#FE6A0E" stroke-width="1.5" stroke-linecap="round" stroke-linejoin="round"/>
</svg>
