<svg width="28" height="29" viewBox="0 0 28 29" fill="none" xmlns="http://www.w3.org/2000/svg">
<path d="M2.91663 14.5072C2.91663 9.28283 2.91663 6.66949 4.53946 5.04666C6.16229 3.42383 8.77446 3.42383 14 3.42383C19.2243 3.42383 21.8376 3.42383 23.4605 5.04666C25.0833 6.66949 25.0833 9.28166 25.0833 14.5072C25.0833 19.7315 25.0833 22.3448 23.4605 23.9677C21.8376 25.5905 19.2255 25.5905 14 25.5905C8.77562 25.5905 6.16229 25.5905 4.53946 23.9677C2.91663 22.3448 2.91663 19.7327 2.91663 14.5072Z" stroke="black" stroke-width="2.3" stroke-linecap="round" stroke-linejoin="round"/>
<path d="M11.6666 10.4238C11.6666 9.9597 11.4823 9.51458 11.1541 9.18639C10.8259 8.8582 10.3808 8.67383 9.91663 8.67383C9.4525 8.67383 9.00738 8.8582 8.67919 9.18639C8.351 9.51458 8.16663 9.9597 8.16663 10.4238C8.16663 10.888 8.351 11.3331 8.67919 11.6613C9.00738 11.9895 9.4525 12.1738 9.91663 12.1738C10.3808 12.1738 10.8259 11.9895 11.1541 11.6613C11.4823 11.3331 11.6666 10.888 11.6666 10.4238ZM11.6666 10.4238H19.8333M16.3333 18.5905C16.3333 18.1264 16.5177 17.6812 16.8459 17.3531C17.174 17.0249 17.6192 16.8405 18.0833 16.8405C18.5474 16.8405 18.9925 17.0249 19.3207 17.3531C19.6489 17.6812 19.8333 18.1264 19.8333 18.5905C19.8333 19.0546 19.6489 19.4997 19.3207 19.8279C18.9925 20.1561 18.5474 20.3405 18.0833 20.3405C17.6192 20.3405 17.174 20.1561 16.8459 19.8279C16.5177 19.4997 16.3333 19.0546 16.3333 18.5905ZM16.3333 18.5905H8.16663" stroke="black" stroke-width="1.9" stroke-linecap="round" stroke-linejoin="round"/>
</svg>
