<svg width="14" height="17" viewBox="0 0 14 17" fill="none" xmlns="http://www.w3.org/2000/svg">
<path d="M4.64798 7.28467V10.3439H3.31448V10.574H2.08984V9.36928H3.31448V9.5994H3.89959V7.28467H4.64798Z" fill="#FF5D37"/>
<path d="M5.98144 12.0495V13.2407H4.75681V12.0495H4.98813V11.684H4.30777V13.2407H4.53909V14.4454H3.31445V13.2407H3.55938V10.9395H4.98813V7.28467H5.73652V12.0495H5.98144Z" fill="#FF5D37"/>
<path d="M8.81204 15.2035V16.4082H7.5874V15.2035H7.81872V13.0241H7.23362V13.8769H7.47854V15.0816H6.25391V13.8769H6.48523V7.28467H7.23362V12.2796H8.56711V15.2035H8.81204Z" fill="#FF5D37"/>
<path d="M11.5867 12.6451V13.8498H10.3621V12.6451H10.5934V10.5876H9.87222V11.0884H10.1035V12.2931H8.87891V11.0884H9.12383V7.28467H9.87222V9.84305H11.3418V12.6451H11.5867Z" fill="#FF5D37"/>
<path d="M8.81058 9.13916V10.3439H7.58594V9.13916H7.81726V7.28467H8.56565V9.13916H8.81058Z" fill="#FF5D37"/>
<path d="M3.06966 8.62481C3.15131 8.62481 3.17852 8.51652 3.11048 8.47591C2.63424 8.17811 1.88585 7.78555 1.9811 7.18995C2.08995 6.48605 4.03577 6.10704 6.58029 6.10704C9.12482 6.10704 11.2611 6.51313 11.4108 7.18995C11.5741 7.93445 10.9482 8.23225 10.7577 8.46237C10.7168 8.50298 10.7577 8.57066 10.8121 8.55713C11.2203 8.50298 12.1456 8.39469 12.6082 7.60958C13.0981 6.78386 13.5063 4.56388 12.5266 2.83122C11.5333 1.05795 9.24728 0.408203 6.48504 0.408203C3.3418 0.408203 1.88585 1.65355 1.12385 2.79061C0.538744 3.65694 -0.304896 6.86507 1.50485 8.2864C1.95388 8.65188 2.68866 8.65188 3.06966 8.62481Z" stroke="#FF5D37" stroke-width="0.816426" stroke-miterlimit="10"/>
<path d="M1.72146 5.41637C1.72146 5.41637 1.62621 4.00858 2.5651 3.06104" stroke="#FF5D37" stroke-width="0.544284" stroke-miterlimit="10" stroke-linecap="round"/>
<path d="M3.20567 2.68181C3.36349 2.68181 3.49142 2.55454 3.49142 2.39755C3.49142 2.24055 3.36349 2.11328 3.20567 2.11328C3.04786 2.11328 2.91992 2.24055 2.91992 2.39755C2.91992 2.55454 3.04786 2.68181 3.20567 2.68181Z" fill="#FF5D37"/>
<path d="M3.83132 2.15425C3.91398 2.15425 3.981 2.08758 3.981 2.00535C3.981 1.92311 3.91398 1.85645 3.83132 1.85645C3.74865 1.85645 3.68164 1.92311 3.68164 2.00535C3.68164 2.08758 3.74865 2.15425 3.83132 2.15425Z" fill="#FF5D37"/>
</svg>
