<svg width="48" height="48" viewBox="0 0 48 48" fill="none" xmlns="http://www.w3.org/2000/svg">
<rect width="48" height="48" rx="20" fill="#FFEAE6"/>
<path d="M15.9995 25.9997C15.8103 26.0003 15.6247 25.9473 15.4645 25.8467C15.3042 25.746 15.1757 25.602 15.0941 25.4313C15.0124 25.2606 14.9808 25.0703 15.003 24.8823C15.0252 24.6944 15.1003 24.5166 15.2195 24.3697L25.1195 14.1697C25.1938 14.084 25.295 14.026 25.4065 14.0054C25.518 13.9848 25.6332 14.0027 25.7332 14.0562C25.8332 14.1097 25.9121 14.1956 25.9568 14.2998C26.0016 14.404 26.0096 14.5203 25.9795 14.6297L24.0595 20.6497C24.0029 20.8012 23.9839 20.9642 24.0041 21.1247C24.0243 21.2852 24.0832 21.4384 24.1756 21.5711C24.268 21.7038 24.3913 21.8122 24.5348 21.8868C24.6783 21.9615 24.8377 22.0002 24.9995 21.9997H31.9995C32.1887 21.999 32.3743 22.0521 32.5345 22.1527C32.6948 22.2533 32.8233 22.3973 32.905 22.568C32.9866 22.7387 33.0182 22.9291 32.996 23.117C32.9738 23.3049 32.8987 23.4827 32.7795 23.6297L22.8795 33.8297C22.8052 33.9154 22.704 33.9733 22.5925 33.9939C22.481 34.0146 22.3658 33.9967 22.2658 33.9432C22.1658 33.8897 22.0869 33.8038 22.0422 33.6996C21.9974 33.5954 21.9894 33.479 22.0195 33.3697L23.9395 27.3497C23.9961 27.1982 24.0151 27.0352 23.9949 26.8747C23.9747 26.7142 23.9158 26.561 23.8234 26.4282C23.731 26.2955 23.6077 26.1872 23.4642 26.1125C23.3207 26.0379 23.1613 25.9991 22.9995 25.9997H15.9995Z" stroke="#FF5833" stroke-width="2" stroke-linecap="round" stroke-linejoin="round"/>
</svg>
