<svg width="48" height="48" viewBox="0 0 48 48" fill="none" xmlns="http://www.w3.org/2000/svg">
<rect width="48" height="48" rx="20" fill="#FFEAE6"/>
<path d="M18 20C18 18.4087 18.6321 16.8826 19.7574 15.7574C20.8826 14.6321 22.4087 14 24 14C25.5913 14 27.1174 14.6321 28.2426 15.7574C29.3679 16.8826 30 18.4087 30 20C30 27 33 29 33 29H15C15 29 18 27 18 20Z" stroke="#FF5833" stroke-width="2" stroke-linecap="round" stroke-linejoin="round"/>
<path d="M22.3008 33C22.4682 33.3044 22.7142 33.5583 23.0133 33.7352C23.3123 33.912 23.6534 34.0053 24.0008 34.0053C24.3482 34.0053 24.6892 33.912 24.9883 33.7352C25.2873 33.5583 25.5334 33.3044 25.7008 33" stroke="#FF5833" stroke-width="2" stroke-linecap="round" stroke-linejoin="round"/>
</svg>
