<svg width="56" height="56" viewBox="0 0 56 56" fill="none" xmlns="http://www.w3.org/2000/svg">
<rect width="56" height="56" rx="20" fill="#FFEAE6"/>
<path d="M31.4993 16.3335H20.9993C20.3805 16.3335 19.787 16.5793 19.3494 17.0169C18.9118 17.4545 18.666 18.048 18.666 18.6668V37.3335C18.666 37.9523 18.9118 38.5458 19.3494 38.9834C19.787 39.421 20.3805 39.6668 20.9993 39.6668H34.9993C35.6182 39.6668 36.2117 39.421 36.6493 38.9834C37.0868 38.5458 37.3327 37.9523 37.3327 37.3335V22.1668L31.4993 16.3335Z" stroke="#FF5833" stroke-width="2.33333" stroke-linecap="round" stroke-linejoin="round"/>
<path d="M30.334 16.3335V21.0002C30.334 21.619 30.5798 22.2125 31.0174 22.6501C31.455 23.0877 32.0485 23.3335 32.6673 23.3335H37.334" stroke="#FF5833" stroke-width="2.33333" stroke-linecap="round" stroke-linejoin="round"/>
<path d="M24.5 31.4998L26.8333 33.8332L31.5 29.1665" stroke="#FF5833" stroke-width="2.33333" stroke-linecap="round" stroke-linejoin="round"/>
</svg>
