<svg width="56" height="56" viewBox="0 0 56 56" fill="none" xmlns="http://www.w3.org/2000/svg">
<rect width="56" height="56" rx="20" fill="#FFEAE6"/>
<path d="M20.7673 27.1831L16.334 39.6664L28.8173 35.2448" stroke="#FF5833" stroke-width="2.33333" stroke-linecap="round" stroke-linejoin="round"/>
<path d="M18.666 17.5H18.6777" stroke="#FF5833" stroke-width="2.33333" stroke-linecap="round" stroke-linejoin="round"/>
<path d="M39.666 23.3335H39.6777" stroke="#FF5833" stroke-width="2.33333" stroke-linecap="round" stroke-linejoin="round"/>
<path d="M31.5 16.3335H31.5117" stroke="#FF5833" stroke-width="2.33333" stroke-linecap="round" stroke-linejoin="round"/>
<path d="M39.666 37.3335H39.6777" stroke="#FF5833" stroke-width="2.33333" stroke-linecap="round" stroke-linejoin="round"/>
<path d="M39.6673 16.3335L37.054 17.2085C36.3101 17.4563 35.6754 17.9547 35.2583 18.6187C34.8412 19.2826 34.6677 20.0708 34.7673 20.8485C34.884 21.8518 34.1023 22.7502 33.0757 22.7502H32.6323C31.629 22.7502 30.7657 23.4502 30.579 24.4302L30.334 25.6668" stroke="#FF5833" stroke-width="2.33333" stroke-linecap="round" stroke-linejoin="round"/>
<path d="M39.6673 29.1667L38.7107 28.7817C37.7073 28.3851 36.5873 29.0151 36.4007 30.0767C36.2723 30.8934 35.5607 31.5001 34.7323 31.5001H33.834" stroke="#FF5833" stroke-width="2.33333" stroke-linecap="round" stroke-linejoin="round"/>
<path d="M26.8333 16.3335L27.2183 17.2902C27.615 18.2935 26.985 19.4135 25.9233 19.6002C25.1067 19.7168 24.5 20.4402 24.5 21.2685V22.1668" stroke="#FF5833" stroke-width="2.33333" stroke-linecap="round" stroke-linejoin="round"/>
<path d="M26.8326 29.1666C29.0843 31.4183 30.1343 34.0316 29.166 34.9999C28.1976 35.9683 25.5843 34.9183 23.3326 32.6666C21.081 30.4149 20.031 27.8016 20.9993 26.8333C21.9676 25.8649 24.581 26.9149 26.8326 29.1666Z" stroke="#FF5833" stroke-width="2.33333" stroke-linecap="round" stroke-linejoin="round"/>
</svg>
