<svg width="56" height="56" viewBox="0 0 56 56" fill="none" xmlns="http://www.w3.org/2000/svg">
<rect width="56" height="56" rx="20" fill="#FFEAE6"/>
<path d="M32.6673 38.5V36.1667C32.6673 34.929 32.1757 33.742 31.3005 32.8668C30.4253 31.9917 29.2383 31.5 28.0007 31.5H21.0007C19.763 31.5 18.576 31.9917 17.7008 32.8668C16.8256 33.742 16.334 34.929 16.334 36.1667V38.5" stroke="#FF5833" stroke-width="2.33333" stroke-linecap="round" stroke-linejoin="round"/>
<path d="M24.5007 26.8333C27.078 26.8333 29.1673 24.744 29.1673 22.1667C29.1673 19.5893 27.078 17.5 24.5007 17.5C21.9233 17.5 19.834 19.5893 19.834 22.1667C19.834 24.744 21.9233 26.8333 24.5007 26.8333Z" stroke="#FF5833" stroke-width="2.33333" stroke-linecap="round" stroke-linejoin="round"/>
<path d="M36.166 23.3335V30.3335" stroke="#FF5833" stroke-width="2.33333" stroke-linecap="round" stroke-linejoin="round"/>
<path d="M39.666 26.8335H32.666" stroke="#FF5833" stroke-width="2.33333" stroke-linecap="round" stroke-linejoin="round"/>
</svg>
