<svg width="64" height="64" viewBox="0 0 64 64" fill="none" xmlns="http://www.w3.org/2000/svg">
<rect width="64" height="64" rx="16" fill="#FF5833" fill-opacity="0.43"/>
<path d="M26.258 29.9561V38.2434H22.6456V38.8668H19.3281V35.6032H22.6456V36.2266H24.2307V29.9561H26.258Z" fill="white"/>
<path d="M29.8732 42.8638V46.0908H26.5557V42.8638H27.1824V41.8737H25.3393V46.0908H25.9659V49.3544H22.6484V46.0908H23.3119V39.8569H27.1824V29.9561H29.2097V42.8638H29.8732Z" fill="white"/>
<path d="M37.5393 51.4079V54.6715H34.2218V51.4079H34.8484V45.504H33.2634V47.8142H33.9269V51.0778H30.6094V47.8142H31.236V29.9561H33.2634V43.4872H36.8758V51.4079H37.5393Z" fill="white"/>
<path d="M45.058 44.4773V47.7409H41.7405V44.4773H42.3672V38.9035H40.4135V40.2603H41.0402V43.5239H37.7227V40.2603H38.3862V29.9561H40.4135V36.8866H44.3945V44.4773H45.058Z" fill="white"/>
<path d="M37.5402 34.9798V38.2434H34.2227V34.9798H34.8493V29.9561H36.8767V34.9798H37.5402Z" fill="white"/>
<path d="M21.9852 33.5867C22.2064 33.5867 22.2801 33.2933 22.0958 33.1833C20.8057 32.3766 18.7783 31.3132 19.0363 29.6997C19.3312 27.7929 24.6024 26.7661 31.4954 26.7661C38.3885 26.7661 44.1757 27.8662 44.5811 29.6997C45.0235 31.7165 43.3279 32.5233 42.8118 33.1466C42.7012 33.2567 42.8118 33.44 42.9593 33.4033C44.0651 33.2567 46.5717 32.9633 47.8249 30.8364C49.1519 28.5996 50.2578 22.5857 47.6038 17.892C44.9129 13.0883 38.7202 11.3281 31.2374 11.3281C22.7224 11.3281 18.7783 14.7017 16.7141 17.782C15.129 20.1289 12.8436 28.8196 17.7462 32.6699C18.9626 33.66 20.9531 33.66 21.9852 33.5867Z" stroke="white" stroke-width="2.21167" stroke-miterlimit="10"/>
<path d="M18.3355 24.8952C18.3355 24.8952 18.0774 21.0815 20.6209 18.5146" stroke="white" stroke-width="1.47445" stroke-miterlimit="10" stroke-linecap="round"/>
<path d="M22.3542 17.4874C22.7817 17.4874 23.1282 17.1426 23.1282 16.7173C23.1282 16.292 22.7817 15.9473 22.3542 15.9473C21.9266 15.9473 21.5801 16.292 21.5801 16.7173C21.5801 17.1426 21.9266 17.4874 22.3542 17.4874Z" fill="white"/>
<path d="M24.05 16.0577C24.2739 16.0577 24.4555 15.8771 24.4555 15.6543C24.4555 15.4316 24.2739 15.251 24.05 15.251C23.8261 15.251 23.6445 15.4316 23.6445 15.6543C23.6445 15.8771 23.8261 16.0577 24.05 16.0577Z" fill="white"/>
</svg>
