<svg width="48" height="48" viewBox="0 0 48 48" fill="none" xmlns="http://www.w3.org/2000/svg">
<rect width="48" height="48" rx="20" fill="#FFEAE6"/>
<path d="M25.5 19C25.7761 19 26 18.7761 26 18.5C26 18.2239 25.7761 18 25.5 18C25.2239 18 25 18.2239 25 18.5C25 18.7761 25.2239 19 25.5 19Z" fill="#FF5833" stroke="#FF5833" stroke-width="2" stroke-linecap="round" stroke-linejoin="round"/>
<path d="M29.5 23C29.7761 23 30 22.7761 30 22.5C30 22.2239 29.7761 22 29.5 22C29.2239 22 29 22.2239 29 22.5C29 22.7761 29.2239 23 29.5 23Z" fill="#FF5833" stroke="#FF5833" stroke-width="2" stroke-linecap="round" stroke-linejoin="round"/>
<path d="M20.5 20C20.7761 20 21 19.7761 21 19.5C21 19.2239 20.7761 19 20.5 19C20.2239 19 20 19.2239 20 19.5C20 19.7761 20.2239 20 20.5 20Z" fill="#FF5833" stroke="#FF5833" stroke-width="2" stroke-linecap="round" stroke-linejoin="round"/>
<path d="M18.5 25C18.7761 25 19 24.7761 19 24.5C19 24.2239 18.7761 24 18.5 24C18.2239 24 18 24.2239 18 24.5C18 24.7761 18.2239 25 18.5 25Z" fill="#FF5833" stroke="#FF5833" stroke-width="2" stroke-linecap="round" stroke-linejoin="round"/>
<path d="M24 14C18.5 14 14 18.5 14 24C14 29.5 18.5 34 24 34C24.926 34 25.648 33.254 25.648 32.312C25.648 31.875 25.468 31.477 25.211 31.187C24.921 30.898 24.773 30.535 24.773 30.062C24.7692 29.8419 24.8098 29.6233 24.8922 29.4192C24.9747 29.2151 25.0975 29.0298 25.2531 28.8741C25.4088 28.7185 25.5941 28.5957 25.7982 28.5132C26.0023 28.4308 26.2209 28.3902 26.441 28.394H28.437C31.488 28.394 33.992 25.891 33.992 22.84C33.965 18.012 29.461 14 24 14Z" stroke="#FF5833" stroke-width="2" stroke-linecap="round" stroke-linejoin="round"/>
</svg>
