<svg width="48" height="48" viewBox="0 0 48 48" fill="none" xmlns="http://www.w3.org/2000/svg">
<rect width="48" height="48" rx="20" fill="#FEF5E7"/>
<path d="M15 23L33 18V30L15 26V23Z" stroke="#F59F0A" stroke-width="2" stroke-linecap="round" stroke-linejoin="round"/>
<path d="M23.5997 28.8002C23.4947 29.181 23.3156 29.5374 23.0728 29.8491C22.83 30.1607 22.5282 30.4215 22.1847 30.6165C21.8411 30.8115 21.4625 30.9369 21.0704 30.9856C20.6784 31.0343 20.2806 31.0053 19.8997 30.9002C19.5189 30.7951 19.1625 30.6161 18.8508 30.3733C18.5392 30.1305 18.2784 29.8287 18.0834 29.4851C17.8884 29.1415 17.763 28.7629 17.7143 28.3709C17.6657 27.9788 17.6947 27.581 17.7997 27.2002" stroke="#F59F0A" stroke-width="2" stroke-linecap="round" stroke-linejoin="round"/>
</svg>
