<svg width="28" height="28" viewBox="0 0 28 28" fill="none" xmlns="http://www.w3.org/2000/svg">
<path d="M17.3332 19.929C19.5066 19.67 21.6422 19.1571 23.6962 18.4007C21.9574 16.4741 20.9965 13.9702 21 11.375V10.5C21 8.64348 20.2625 6.86301 18.9497 5.55025C17.637 4.2375 15.8565 3.5 14 3.5C12.1435 3.5 10.363 4.2375 9.05024 5.55025C7.73748 6.86301 6.99999 8.64348 6.99999 10.5V11.375C7.00317 13.9703 6.04185 16.4743 4.30265 18.4007C6.32449 19.1473 8.45599 19.6665 10.6668 19.929M17.3332 19.929C15.1188 20.1912 12.8812 20.1912 10.6668 19.929M17.3332 19.929C17.5013 20.4538 17.5431 21.011 17.4552 21.555C17.3673 22.0991 17.1521 22.6147 16.8273 23.0598C16.5024 23.505 16.077 23.8672 15.5857 24.1169C15.0944 24.3666 14.5511 24.4967 14 24.4967C13.4489 24.4967 12.9056 24.3666 12.4143 24.1169C11.923 23.8672 11.4976 23.505 11.1727 23.0598C10.8479 22.6147 10.6327 22.0991 10.5448 21.555C10.4569 21.011 10.4987 20.4538 10.6668 19.929M3.64465 8.75C3.97368 6.79582 4.8508 4.97522 6.17399 3.5M21.826 3.5C23.1492 4.97522 24.0263 6.79582 24.3553 8.75" stroke="black" stroke-width="2.3" stroke-linecap="round" stroke-linejoin="round"/>
</svg>
