<svg width="20" height="20" viewBox="0 0 20 20" fill="none" xmlns="http://www.w3.org/2000/svg">
<g clip-path="url(#clip0_333_540)">
<path d="M13.3334 4.99984C13.3334 3.42817 13.3334 2.64317 12.845 2.15484C12.3567 1.6665 11.5717 1.6665 10 1.6665C8.42835 1.6665 7.64335 1.6665 7.15502 2.15484C6.66669 2.64317 6.66669 3.42817 6.66669 4.99984M1.66669 11.6665C1.66669 8.524 1.66669 6.95234 2.64335 5.9765C3.62002 5.00067 5.19085 4.99984 8.33335 4.99984H11.6667C14.8092 4.99984 16.3809 4.99984 17.3567 5.9765C18.3325 6.95317 18.3334 8.524 18.3334 11.6665C18.3334 14.809 18.3334 16.3807 17.3567 17.3565C16.38 18.3323 14.8092 18.3332 11.6667 18.3332H8.33335C5.19085 18.3332 3.61919 18.3332 2.64335 17.3565C1.66752 16.3798 1.66669 14.809 1.66669 11.6665Z" stroke="#FE6A0E" stroke-width="1.5"/>
<path d="M14.1667 7.49984C14.1667 7.72085 14.0789 7.93281 13.9226 8.08909C13.7663 8.24537 13.5544 8.33317 13.3334 8.33317C13.1124 8.33317 12.9004 8.24537 12.7441 8.08909C12.5878 7.93281 12.5 7.72085 12.5 7.49984C12.5 7.27882 12.5878 7.06686 12.7441 6.91058C12.9004 6.7543 13.1124 6.6665 13.3334 6.6665C13.5544 6.6665 13.7663 6.7543 13.9226 6.91058C14.0789 7.06686 14.1667 7.27882 14.1667 7.49984ZM7.50004 7.49984C7.50004 7.72085 7.41224 7.93281 7.25596 8.08909C7.09968 8.24537 6.88772 8.33317 6.66671 8.33317C6.44569 8.33317 6.23373 8.24537 6.07745 8.08909C5.92117 7.93281 5.83337 7.72085 5.83337 7.49984C5.83337 7.27882 5.92117 7.06686 6.07745 6.91058C6.23373 6.7543 6.44569 6.6665 6.66671 6.6665C6.88772 6.6665 7.09968 6.7543 7.25596 6.91058C7.41224 7.06686 7.50004 7.27882 7.50004 7.49984Z" fill="#FE6A0E"/>
</g>
<defs>
<clipPath id="clip0_333_540">
<rect width="20" height="20" fill="white"/>
</clipPath>
</defs>
</svg>
