<svg width="24" height="25" viewBox="0 0 24 25" fill="none" xmlns="http://www.w3.org/2000/svg">
<g clip-path="url(#clip0_686_255)">
<path d="M21 21.5L16.657 17.157M16.657 17.157C17.3999 16.4141 17.9892 15.5321 18.3912 14.5615C18.7933 13.5909 19.0002 12.5506 19.0002 11.5C19.0002 10.4494 18.7933 9.40905 18.3913 8.43842C17.9892 7.46779 17.3999 6.58585 16.657 5.84296C15.9141 5.10007 15.0322 4.51078 14.0616 4.10874C13.0909 3.70669 12.0506 3.49976 11 3.49976C9.94942 3.49976 8.90911 3.70669 7.93848 4.10874C6.96785 4.51078 6.08591 5.10007 5.34302 5.84296C3.84269 7.34329 2.99982 9.37818 2.99982 11.5C2.99982 13.6217 3.84269 15.6566 5.34302 17.157C6.84335 18.6573 8.87824 19.5002 11 19.5002C13.1218 19.5002 15.1567 18.6573 16.657 17.157Z" stroke="#FE6A0E" stroke-width="3" stroke-linecap="round" stroke-linejoin="round"/>
</g>
<defs>
<clipPath id="clip0_686_255">
<rect width="24" height="24" fill="white" transform="translate(0 0.5)"/>
</clipPath>
</defs>
</svg>
