<svg width="240" height="180" viewBox="0 0 240 180" fill="none" xmlns="http://www.w3.org/2000/svg">
  <rect width="240" height="180" fill="white"/>
  <rect x="60" y="40" width="120" height="100" rx="4" fill="#E7EDFF"/>
  <rect x="80" y="50" width="80" height="10" rx="2" fill="#3361EA" opacity="0.7"/>
  <line x1="70" y1="70.5" x2="170" y2="70.5" stroke="#3361EA" opacity="0.3" stroke-dasharray="4 4"/>
  <rect x="70" y="80" width="20" height="15" rx="2" fill="#3361EA" opacity="0.2"/>
  <rect x="95" y="80" width="20" height="15" rx="2" fill="#3361EA" opacity="0.2"/>
  <rect x="120" y="80" width="20" height="15" rx="2" fill="#3361EA" opacity="0.2"/>
  <rect x="145" y="80" width="20" height="15" rx="2" fill="#3361EA" opacity="0.2"/>
  <rect x="70" y="100" width="20" height="15" rx="2" fill="#3361EA" opacity="0.2"/>
  <rect x="95" y="100" width="20" height="15" rx="2" fill="#3361EA" opacity="0.2"/>
  <rect x="120" y="100" width="20" height="15" rx="2" fill="#3361EA" opacity="0.2"/>
  <rect x="145" y="100" width="20" height="15" rx="2" fill="#3361EA" opacity="0.2"/>
  <circle cx="170" cy="55" r="15" fill="#3361EA"/>
  <rect x="165" y="45" width="10" height="2" fill="white"/>
  <rect x="169" y="45" width="2" height="15" fill="white"/>
</svg> 