<svg width="44" height="54" viewBox="0 0 44 54" fill="none" xmlns="http://www.w3.org/2000/svg">
<path d="M15.3744 23.9226V33.5728H11.168V34.2987H7.30493V30.4984H11.168V31.2243H13.0137V23.9226H15.3744Z" fill="#FE6A0E"/>
<path d="M19.581 38.953V42.7106H15.7179V38.953H16.4476V37.8001H14.3015V42.7106H15.0311V46.5109H11.1681V42.7106H11.9407V35.4516H16.4476V23.9226H18.8084V38.953H19.581Z" fill="#FE6A0E"/>
<path d="M28.5088 48.9021V52.7024H24.6458V48.9021H25.3755V42.0274H23.5298V44.7175H24.3024V48.5178H20.4393V44.7175H21.169V23.9226H23.5298V39.6789H27.7362V48.9021H28.5088Z" fill="#FE6A0E"/>
<path d="M37.2652 40.8318V44.6321H33.4021V40.8318H34.1318V34.3414H31.8569V35.9213H32.5866V39.7216H28.7235V35.9213H29.4961V23.9226H31.8569V31.9929H36.4926V40.8318H37.2652Z" fill="#FE6A0E"/>
<path d="M28.5089 29.7725V33.5728H24.6459V29.7725H25.3756V23.9226H27.7363V29.7725H28.5089Z" fill="#FE6A0E"/>
<path d="M10.3954 28.1499C10.653 28.1499 10.7388 27.8083 10.5242 27.6802C9.0219 26.7408 6.66115 25.5025 6.96161 23.6237C7.30499 21.4033 13.443 20.2077 21.4695 20.2077C29.4961 20.2077 36.235 21.4887 36.7071 23.6237C37.2222 25.9722 35.2478 26.9116 34.6468 27.6375C34.5181 27.7656 34.6468 27.9791 34.8185 27.9364C36.1062 27.7656 39.025 27.424 40.4844 24.9474C42.0296 22.3427 43.3173 15.34 40.2268 9.87437C37.0935 4.28068 29.8824 2.23108 21.1691 2.23108C11.2539 2.23108 6.66115 6.15947 4.25747 9.74627C2.41178 12.4791 -0.249434 22.5989 5.45931 27.0824C6.87576 28.2353 9.19359 28.2353 10.3954 28.1499Z" stroke="#FE6A0E" stroke-width="2.57537" stroke-miterlimit="10"/>
<path d="M6.14612 18.0301C6.14612 18.0301 5.84566 13.5893 8.80734 10.6003" stroke="#FE6A0E" stroke-width="1.71691" stroke-miterlimit="10" stroke-linecap="round"/>
<path d="M10.8247 9.40472C11.3225 9.40472 11.7261 9.00326 11.7261 8.50803C11.7261 8.01279 11.3225 7.61133 10.8247 7.61133C10.3269 7.61133 9.92334 8.01279 9.92334 8.50803C9.92334 9.00326 10.3269 9.40472 10.8247 9.40472Z" fill="#FE6A0E"/>
<path d="M12.7991 7.73945C13.0598 7.73945 13.2712 7.52916 13.2712 7.26975C13.2712 7.01034 13.0598 6.80005 12.7991 6.80005C12.5383 6.80005 12.3269 7.01034 12.3269 7.26975C12.3269 7.52916 12.5383 7.73945 12.7991 7.73945Z" fill="#FE6A0E"/>
</svg>
